<mxfile host="Electron" agent="Mozilla/5.0 (Windows NT 10.0; Win64; x64) AppleWebKit/537.36 (KHTML, like Gecko) draw.io/28.1.2 Chrome/138.0.7204.243 Electron/37.4.0 Safari/537.36" version="28.1.2">
  <diagram name="PÃ¡gina-1" id="JANfhKj3A-JbZkmDO-ZT">
    <mxGraphModel dx="514" dy="618" grid="1" gridSize="10" guides="1" tooltips="1" connect="1" arrows="1" fold="1" page="1" pageScale="1" pageWidth="827" pageHeight="1169" math="0" shadow="0">
      <root>
        <mxCell id="0" />
        <mxCell id="1" parent="0" />
        <mxCell id="oyMoGey5Hfb8snuiOrO--1" value="" style="shape=actor;whiteSpace=wrap;html=1;" vertex="1" parent="1">
          <mxGeometry x="40" y="180" width="40" height="60" as="geometry" />
        </mxCell>
        <mxCell id="oyMoGey5Hfb8snuiOrO--3" value="" style="sketch=0;pointerEvents=1;shadow=0;dashed=0;html=1;strokeColor=none;fillColor=#DF8C42;labelPosition=center;verticalLabelPosition=bottom;verticalAlign=top;align=center;outlineConnect=0;shape=mxgraph.veeam2.aws_s3;" vertex="1" parent="1">
          <mxGeometry x="153" y="180" width="77" height="77" as="geometry" />
        </mxCell>
        <mxCell id="oyMoGey5Hfb8snuiOrO--4" value="" style="endArrow=classic;html=1;rounded=0;" edge="1" parent="1">
          <mxGeometry width="50" height="50" relative="1" as="geometry">
            <mxPoint x="80" y="218" as="sourcePoint" />
            <mxPoint x="150" y="218" as="targetPoint" />
          </mxGeometry>
        </mxCell>
        <mxCell id="oyMoGey5Hfb8snuiOrO--5" value="" style="endArrow=classic;html=1;rounded=0;" edge="1" parent="1">
          <mxGeometry width="50" height="50" relative="1" as="geometry">
            <mxPoint x="240" y="218" as="sourcePoint" />
            <mxPoint x="310" y="218" as="targetPoint" />
          </mxGeometry>
        </mxCell>
        <mxCell id="oyMoGey5Hfb8snuiOrO--6" value="" style="outlineConnect=0;dashed=0;verticalLabelPosition=bottom;verticalAlign=top;align=center;html=1;shape=mxgraph.aws3.api_gateway;fillColor=#D9A741;gradientColor=none;" vertex="1" parent="1">
          <mxGeometry x="320" y="172" width="76.5" height="93" as="geometry" />
        </mxCell>
        <mxCell id="oyMoGey5Hfb8snuiOrO--7" value="" style="endArrow=classic;html=1;rounded=0;" edge="1" parent="1">
          <mxGeometry width="50" height="50" relative="1" as="geometry">
            <mxPoint x="410" y="218" as="sourcePoint" />
            <mxPoint x="480" y="218" as="targetPoint" />
          </mxGeometry>
        </mxCell>
        <mxCell id="oyMoGey5Hfb8snuiOrO--8" value="" style="outlineConnect=0;dashed=0;verticalLabelPosition=bottom;verticalAlign=top;align=center;html=1;shape=mxgraph.aws3.lambda_function;fillColor=#F58534;gradientColor=none;" vertex="1" parent="1">
          <mxGeometry x="490" y="180" width="80" height="80" as="geometry" />
        </mxCell>
        <mxCell id="oyMoGey5Hfb8snuiOrO--9" value="" style="endArrow=classic;html=1;rounded=0;" edge="1" parent="1">
          <mxGeometry width="50" height="50" relative="1" as="geometry">
            <mxPoint x="580" y="218" as="sourcePoint" />
            <mxPoint x="650" y="218" as="targetPoint" />
          </mxGeometry>
        </mxCell>
        <mxCell id="oyMoGey5Hfb8snuiOrO--11" value="" style="sketch=0;pointerEvents=1;shadow=0;dashed=0;html=1;strokeColor=none;fillColor=#DF8C42;labelPosition=center;verticalLabelPosition=bottom;verticalAlign=top;align=center;outlineConnect=0;shape=mxgraph.veeam2.aws_s3;" vertex="1" parent="1">
          <mxGeometry x="660" y="180" width="77" height="77" as="geometry" />
        </mxCell>
        <mxCell id="oyMoGey5Hfb8snuiOrO--12" value="User" style="text;html=1;align=center;verticalAlign=middle;resizable=0;points=[];autosize=1;strokeColor=none;fillColor=none;" vertex="1" parent="1">
          <mxGeometry x="35" y="270" width="50" height="30" as="geometry" />
        </mxCell>
        <mxCell id="oyMoGey5Hfb8snuiOrO--13" value="Static Site on S3" style="text;html=1;align=center;verticalAlign=middle;resizable=0;points=[];autosize=1;strokeColor=none;fillColor=none;" vertex="1" parent="1">
          <mxGeometry x="130" y="270" width="110" height="30" as="geometry" />
        </mxCell>
        <mxCell id="oyMoGey5Hfb8snuiOrO--14" value="API Gateway" style="text;html=1;align=center;verticalAlign=middle;resizable=0;points=[];autosize=1;strokeColor=none;fillColor=none;" vertex="1" parent="1">
          <mxGeometry x="313.25" y="270" width="90" height="30" as="geometry" />
        </mxCell>
        <mxCell id="oyMoGey5Hfb8snuiOrO--15" value="Lambda Function" style="text;html=1;align=center;verticalAlign=middle;resizable=0;points=[];autosize=1;strokeColor=none;fillColor=none;" vertex="1" parent="1">
          <mxGeometry x="470" y="270" width="120" height="30" as="geometry" />
        </mxCell>
        <mxCell id="oyMoGey5Hfb8snuiOrO--16" value="S3" style="text;html=1;align=center;verticalAlign=middle;resizable=0;points=[];autosize=1;strokeColor=none;fillColor=none;" vertex="1" parent="1">
          <mxGeometry x="678.5" y="270" width="40" height="30" as="geometry" />
        </mxCell>
      </root>
    </mxGraphModel>
  </diagram>
</mxfile>
